<svg width="93" height="92" viewBox="0 0 93 92" fill="none" xmlns="http://www.w3.org/2000/svg">
<path d="M38.7231 45.8981C38.7231 41.6805 42.1402 38.2606 46.3566 38.2606C50.573 38.2606 53.9919 41.6805 53.9919 45.8981C53.9919 50.1157 50.573 53.5356 46.3566 53.5356C42.1402 53.5356 38.7231 50.1157 38.7231 45.8981ZM34.5956 45.8981C34.5956 52.3956 39.861 57.6625 46.3566 57.6625C52.8522 57.6625 58.1176 52.3956 58.1176 45.8981C58.1176 39.4006 52.8522 34.1337 46.3566 34.1337C39.861 34.1337 34.5956 39.4006 34.5956 45.8981ZM55.8347 33.6672C55.8345 34.211 55.9955 34.7426 56.2973 35.1948C56.5991 35.6471 57.0282 35.9996 57.5304 36.2079C58.0325 36.4162 58.5851 36.4709 59.1183 36.365C59.6515 36.2591 60.1414 35.9975 60.5259 35.6131C60.9104 35.2288 61.1724 34.739 61.2787 34.2058C61.3849 33.6725 61.3307 33.1197 61.1229 32.6172C60.9151 32.1148 60.563 31.6853 60.1111 31.383C59.6592 31.0807 59.1279 30.9192 58.5843 30.919H58.5832C57.8545 30.9194 57.1558 31.209 56.6405 31.7243C56.1251 32.2395 55.8353 32.9384 55.8347 33.6672ZM37.1033 64.5469C34.8702 64.4452 33.6565 64.0731 32.8499 63.7588C31.7805 63.3424 31.0176 62.8464 30.2154 62.0451C29.4132 61.2438 28.9166 60.4813 28.5021 59.4116C28.1877 58.6052 27.8157 57.3907 27.7142 55.157C27.6032 52.742 27.581 52.0166 27.581 45.8983C27.581 39.78 27.605 39.0566 27.7142 36.6396C27.8159 34.4059 28.1906 33.1938 28.5021 32.3849C28.9184 31.3153 29.4143 30.5521 30.2154 29.7497C31.0165 28.9472 31.7787 28.4505 32.8499 28.0359C33.6561 27.7214 34.8702 27.3493 37.1033 27.2478C39.5176 27.1367 40.2428 27.1145 46.3566 27.1145C52.4703 27.1145 53.1963 27.1386 55.6126 27.2478C57.8457 27.3495 59.0574 27.7243 59.866 28.0359C60.9354 28.4505 61.6984 28.9483 62.5005 29.7497C63.3027 30.551 63.7975 31.3153 64.2138 32.3849C64.5282 33.1914 64.9002 34.4059 65.0017 36.6396C65.1127 39.0566 65.1349 39.78 65.1349 45.8983C65.1349 52.0166 65.1127 52.74 65.0017 55.157C64.9 57.3907 64.5262 58.6048 64.2138 59.4116C63.7975 60.4813 63.3016 61.2445 62.5005 62.0451C61.6995 62.8457 60.9354 63.3424 59.866 63.7588C59.0598 64.0733 57.8457 64.4454 55.6126 64.5469C53.1983 64.658 52.4731 64.6802 46.3566 64.6802C40.2401 64.6802 39.5168 64.658 37.1033 64.5469ZM36.9136 23.1261C34.4754 23.2371 32.8092 23.6239 31.3542 24.1902C29.8472 24.7751 28.5716 25.5597 27.2968 26.8328C26.0221 28.1059 25.2397 29.384 24.655 30.8913C24.0888 32.3477 23.7021 34.0134 23.5911 36.4524C23.4782 38.8953 23.4524 39.6763 23.4524 45.8981C23.4524 52.1199 23.4782 52.9009 23.5911 55.3438C23.7021 57.7829 24.0888 59.4485 24.655 60.9049C25.2397 62.4113 26.0222 63.6908 27.2968 64.9634C28.5714 66.2359 29.8472 67.0195 31.3542 67.606C32.812 68.1724 34.4754 68.5591 36.9136 68.6702C39.3571 68.7812 40.1365 68.8089 46.3566 68.8089C52.5766 68.8089 53.3574 68.7831 55.7995 68.6702C58.238 68.5591 59.903 68.1724 61.359 67.606C62.865 67.0195 64.1416 66.2365 65.4163 64.9634C66.6911 63.6903 67.4719 62.4113 68.0582 60.9049C68.6244 59.4485 69.0128 57.7828 69.1221 55.3438C69.2331 52.8991 69.2589 52.1199 69.2589 45.8981C69.2589 39.6763 69.2331 38.8953 69.1221 36.4524C69.011 34.0133 68.6244 32.3468 68.0582 30.8913C67.4719 29.3849 66.6891 28.108 65.4163 26.8328C64.1436 25.5577 62.865 24.7751 61.3608 24.1902C59.903 23.6239 58.2378 23.2353 55.8013 23.1261C53.3592 23.015 52.5785 22.9873 46.3584 22.9873C40.1384 22.9873 39.3571 23.0131 36.9136 23.1261Z" fill="white"/>
</svg>
