<svg width="92" height="92" viewBox="0 0 92 92" fill="none" xmlns="http://www.w3.org/2000/svg">
<path d="M43.6651 23.1405C36.2335 23.9906 28.8281 30.151 28.5225 38.9509C28.3304 44.3239 29.8193 48.3548 34.8101 49.4866C36.9758 45.5721 34.1114 44.7086 33.6661 41.8767C31.8366 30.2718 46.7303 22.3576 54.5242 30.4596C59.9167 36.0698 56.3668 53.3296 47.669 51.5356C39.338 49.8222 51.7472 36.0832 45.0972 33.3855C39.6917 31.1933 36.8186 40.0917 39.3817 44.5118C37.8796 52.1128 34.6441 59.2753 35.9541 68.8089C40.2025 65.6504 41.6347 59.6019 42.8093 53.2938C44.9444 54.6225 46.084 56.0049 48.8087 56.2197C58.8557 57.016 64.4665 45.9434 63.0954 35.7298C61.8772 26.6748 53.0571 22.0668 43.6651 23.1405Z" fill="white"/>
</svg>
