<svg width="92" height="92" viewBox="0 0 92 92" fill="none" xmlns="http://www.w3.org/2000/svg">
<path d="M60.2702 32.6244C59.9665 32.4674 59.6708 32.2953 59.3843 32.1088C58.5511 31.5579 57.7871 30.9089 57.109 30.1756C55.4121 28.2341 54.7783 26.2644 54.5449 24.8853H54.5543C54.3593 23.7406 54.4399 23 54.4521 23H46.7233V52.8856C46.7233 53.2869 46.7233 53.6834 46.7065 54.0753C46.7065 54.1241 46.7018 54.1691 46.699 54.2216C46.699 54.2431 46.699 54.2656 46.6943 54.2881C46.6943 54.2938 46.6943 54.2994 46.6943 54.305C46.6128 55.3773 46.2691 56.4131 45.6933 57.3214C45.1175 58.2297 44.3274 58.9825 43.3924 59.5138C42.4179 60.0681 41.3157 60.359 40.1946 60.3575C36.5936 60.3575 33.6752 57.4213 33.6752 53.795C33.6752 50.1688 36.5936 47.2325 40.1946 47.2325C40.8762 47.2319 41.5537 47.3391 42.2018 47.5503L42.2111 39.6809C40.2437 39.4268 38.2449 39.5832 36.3409 40.1402C34.4368 40.6972 32.6689 41.6427 31.1486 42.9172C29.8165 44.0746 28.6966 45.4557 27.8393 46.9981C27.513 47.5606 26.2821 49.8209 26.133 53.4894C26.0393 55.5716 26.6646 57.7288 26.9627 58.6203V58.6391C27.1502 59.1641 27.8768 60.9556 29.0608 62.4659C30.0156 63.6774 31.1437 64.7417 32.4086 65.6244V65.6056L32.4274 65.6244C36.169 68.1669 40.3174 68 40.3174 68C41.0355 67.9709 43.4411 68 46.173 66.7053C49.203 65.27 50.928 63.1316 50.928 63.1316C52.03 61.8538 52.9063 60.3977 53.5193 58.8256C54.2186 56.9872 54.4521 54.7822 54.4521 53.9009V38.0459C54.5458 38.1022 55.7946 38.9281 55.7946 38.9281C55.7946 38.9281 57.5936 40.0813 60.4005 40.8322C62.4143 41.3666 65.1274 41.4791 65.1274 41.4791V33.8066C64.1768 33.9097 62.2465 33.6097 60.2702 32.6244Z" fill="white"/>
</svg>
