<svg width="92" height="92" viewBox="0 0 92 92" fill="none" xmlns="http://www.w3.org/2000/svg">
<path d="M68.5055 31.285C66.9937 31.9362 65.4043 32.3897 63.7766 32.6342C64.5376 32.5037 65.6573 31.1327 66.103 30.5778C66.7801 29.7408 67.2962 28.7852 67.6249 27.7597C67.6249 27.6836 67.701 27.5747 67.6249 27.5203C67.5866 27.4994 67.5436 27.4884 67.4999 27.4884C67.4562 27.4884 67.4133 27.4994 67.3749 27.5203C65.6075 28.4783 63.7265 29.2094 61.7764 29.6965C61.7084 29.7172 61.6361 29.7191 61.5671 29.7019C61.4982 29.6846 61.4352 29.6489 61.385 29.5985C61.2332 29.4176 61.0698 29.2468 60.8958 29.0872C60.1004 28.3739 59.198 27.7901 58.2216 27.3571C56.9035 26.8159 55.4798 26.5815 54.058 26.6717C52.6784 26.7589 51.3315 27.1292 50.101 27.7597C48.8893 28.4244 47.8243 29.3275 46.9701 30.4146C46.0716 31.5335 45.423 32.832 45.0677 34.2228C44.7748 35.5457 44.7416 36.913 44.9699 38.2486C44.9699 38.4771 44.9699 38.5098 44.7742 38.4771C37.0232 37.3347 30.6637 34.5819 25.4674 28.6737C25.2391 28.4126 25.1195 28.4126 24.9347 28.6737C22.6736 32.112 23.7715 37.5523 26.598 40.2398C26.9785 40.5988 27.3698 40.947 27.7829 41.2734C26.487 41.1814 25.2228 40.8299 24.0651 40.2398C23.8476 40.0983 23.7281 40.1745 23.7172 40.4356C23.6864 40.7977 23.6864 41.1617 23.7172 41.5237C23.944 43.2587 24.6272 44.9023 25.6968 46.2864C26.7664 47.6705 28.1841 48.7454 29.8049 49.4013C30.2 49.5706 30.6117 49.6983 31.0333 49.7821C29.8336 50.0185 28.6032 50.0552 27.3916 49.8909C27.1307 49.8365 27.0328 49.9779 27.1307 50.2282C28.7287 54.5804 32.1965 55.9079 34.7403 56.6477C35.0882 56.7021 35.4361 56.7021 35.8274 56.7892C35.8274 56.7892 35.8274 56.7892 35.7622 56.8545C35.0121 58.2254 31.9791 59.1503 30.5876 59.629C28.0478 60.5421 25.3399 60.8911 22.6518 60.6518C22.2279 60.5865 22.13 60.5974 22.0213 60.6518C21.9126 60.7062 22.0213 60.8259 22.1409 60.9347C22.6845 61.2938 23.228 61.6093 23.7933 61.914C25.4762 62.8327 27.2553 63.5625 29.0983 64.0901C38.643 66.7232 49.3835 64.7864 56.5475 57.6596C62.1786 52.067 64.1571 44.3526 64.1571 36.6274C64.1571 36.3336 64.5159 36.1595 64.7224 36.0072C66.1471 34.8962 67.403 33.5841 68.4511 32.112C68.6326 31.8925 68.7257 31.6131 68.712 31.3286C68.712 31.1653 68.712 31.198 68.5055 31.285Z" fill="white"/>
</svg>
