<svg width="93" height="92" viewBox="0 0 93 92" fill="none" xmlns="http://www.w3.org/2000/svg">
<path d="M23.4524 66.9764L26.7371 54.7632C24.0881 50.0055 23.2464 44.4537 24.3667 39.1266C25.4869 33.7994 28.4938 29.0542 32.8356 25.7617C37.1774 22.4693 42.5629 20.8503 48.0038 21.2021C53.4448 21.5538 58.5761 23.8526 62.4564 27.6766C66.3366 31.5006 68.7054 36.5933 69.1281 42.0202C69.5508 47.4471 67.999 52.8442 64.7576 57.2211C61.5161 61.5979 56.8023 64.661 51.4813 65.8482C46.1602 67.0354 40.5888 66.2671 35.7893 63.6842L23.4524 66.9764ZM36.3842 59.114L37.1472 59.5658C40.6235 61.6229 44.6838 62.4742 48.6953 61.987C52.7069 61.4997 56.4443 59.7014 59.3252 56.8722C62.2061 54.0429 64.0686 50.3418 64.6225 46.3454C65.1764 42.3491 64.3906 38.2821 62.3875 34.7782C60.3844 31.2743 57.2766 28.5303 53.5483 26.9738C49.82 25.4174 45.6807 25.1359 41.7755 26.1733C37.8703 27.2106 34.4184 29.5086 31.9579 32.709C29.4974 35.9093 28.1665 39.8324 28.1725 43.8668C28.1692 47.212 29.0959 50.4925 30.8494 53.343L31.3279 54.1306L29.4915 60.9472L36.3842 59.114Z" fill="white"/>
<path fill-rule="evenodd" clip-rule="evenodd" d="M54.9021 47.0026C54.4549 46.6424 53.9312 46.3889 53.3709 46.2614C52.8107 46.1339 52.2286 46.1357 51.6692 46.2667C50.8286 46.6153 50.2855 47.9321 49.7424 48.5906C49.6278 48.7484 49.4595 48.8591 49.2691 48.9019C49.0786 48.9447 48.879 48.9166 48.7078 48.823C45.6305 47.6197 43.051 45.413 41.3884 42.5614C41.2466 42.3835 41.1795 42.1575 41.2012 41.9312C41.2229 41.7048 41.3318 41.4957 41.5048 41.3479C42.1106 40.7492 42.5554 40.0076 42.798 39.1918C42.8519 38.292 42.6454 37.3957 42.2031 36.6098C41.8612 35.5079 41.2106 34.5268 40.328 33.7824C39.8728 33.578 39.3681 33.5095 38.8748 33.5851C38.3814 33.6607 37.9205 33.8772 37.5477 34.2084C36.9004 34.766 36.3866 35.4613 36.0442 36.2433C35.7018 37.0254 35.5394 37.8741 35.5691 38.7271C35.5711 39.206 35.6319 39.683 35.7502 40.1472C36.0504 41.2625 36.5122 42.3281 37.1209 43.3102C37.5601 44.0626 38.0393 44.7909 38.5564 45.4921C40.2369 47.7953 42.3494 49.7508 44.7766 51.2501C45.9945 52.012 47.2963 52.6315 48.6561 53.0963C50.0687 53.7355 51.6283 53.9809 53.1693 53.8064C54.0473 53.6737 54.8792 53.3276 55.5918 52.7985C56.3044 52.2695 56.8758 51.5737 57.2557 50.7724C57.479 50.2884 57.5467 49.7472 57.4497 49.2232C57.2169 48.1516 55.7815 47.519 54.9021 47.0026Z" fill="white"/>
</svg>
